<svg data-logo="logo" xmlns="http://www.w3.org/2000/svg" viewBox="0 0 180 43">
        <g id="logogram" transform="translate(0, 1) rotate(0) "><path d="M40.1509 20.27C40.1509 31.3157 31.1966 40.27 20.1509 40.27C9.10524 40.27 0.150879 31.3157 0.150879 20.27C0.150879 9.2243 9.10524 0.269989 20.1509 0.269989C31.1966 0.269989 40.1509 9.2243 40.1509 20.27Z" fill="#68DBFF"/><path d="M63.1509 20.27C63.1509 31.3157 54.1964 40.27 43.1508 40.27C32.1052 40.27 23.1509 31.3157 23.1509 20.27C23.1509 9.2243 32.1052 0.269989 43.1508 0.269989C54.1964 0.269989 63.1509 9.2243 63.1509 20.27Z" fill="#FF7917"/><path fill-rule="evenodd" clip-rule="evenodd" d="M31.6509 36.6351C36.792 33.0157 40.1509 27.0351 40.1509 20.27C40.1509 13.5049 36.792 7.52425 31.6509 3.90488C26.5098 7.52425 23.1509 13.5049 23.1509 20.27C23.1509 27.0351 26.5098 33.0157 31.6509 36.6351Z" fill="#5D2C02"/></g>
        <g id="logotype" transform="translate(70, 10)"><path fill="#111111" d="M10.73 23L6.84 23L6.84 20.38Q6.84 18.70 7.02 17.24Q7.19 15.79 7.89 14.41Q8.59 13.02 10.10 11.62L10.10 11.62Q8.59 10.26 7.91 8.88Q7.22 7.49 7.03 6.01Q6.84 4.52 6.84 2.87L6.84 2.87L6.84 0.28L10.73 0.28L10.73 1.12L10.69 2.00L10.69 2.66L10.66 3.33Q10.66 4.94 11.04 6.36Q11.43 7.77 12.93 9.07L12.93 9.07Q14.51 7.70 14.87 6.25Q15.24 4.80 15.24 3.19L15.24 3.19L15.24 2.59L15.21 1.93L15.21 1.09L15.17 0.28L19.09 0.28L19.09 2.87Q19.09 4.48 18.90 5.97Q18.71 7.46 18.01 8.84Q17.30 10.22 15.80 11.62L15.80 11.62Q17.34 13.02 18.02 14.41Q18.71 15.79 18.90 17.24Q19.09 18.70 19.09 20.38L19.09 20.38L19.09 23L15.17 23L15.21 22.13L15.21 21.29L15.24 20.62L15.24 20.02Q15.24 18.38 14.86 17.00Q14.47 15.61 12.93 14.21L12.93 14.21Q11.43 15.54 11.04 16.89Q10.66 18.24 10.66 19.92L10.66 19.92L10.69 20.59L10.69 21.25L10.73 22.09L10.73 23ZM24.90 23L20.95 23L20.95 0.32L27.11 0.32Q29.87 0.32 31.20 1.12Q32.53 1.93 32.95 3.33Q33.37 4.73 33.37 6.55L33.37 6.55L33.37 7.32L33.34 8.09L33.34 8.72L33.30 9.42Q33.30 11.55 32.72 12.74Q32.15 13.93 31.04 14.44Q29.94 14.95 28.38 15.05Q26.83 15.16 24.90 15.16L24.90 15.16L24.90 23ZM24.90 3.99L24.90 11.48Q26.55 11.48 27.46 11.45Q28.37 11.41 28.79 11.22Q29.20 11.03 29.31 10.59Q29.41 10.15 29.41 9.31L29.41 9.31L29.41 6.16Q29.41 5.01 28.89 4.55Q28.37 4.10 27.56 4.05Q26.76 3.99 25.88 3.99L25.88 3.99L24.90 3.99ZM46.25 23L35.19 23L35.19 0.28L46.25 0.28L46.25 3.96L39.11 3.96L39.11 9.24L44.15 9.24L44.15 12.95L39.11 12.95L39.11 19.29L46.25 19.29L46.25 23ZM52.16 23L48.28 23L48.28 0.28L52.13 0.28L57.77 13.16L57.77 0.28L61.72 0.28L61.72 23L57.80 23L52.16 10.12L52.16 23ZM69.88 23L69.88 23Q67.74 23 66.50 22.53Q65.25 22.05 64.66 21.16Q64.06 20.27 63.91 18.94Q63.75 17.61 63.75 15.93L63.75 15.93L67.64 15.93L67.64 16.59L67.60 17.23L67.60 17.79Q67.60 18.66 67.92 18.98Q68.23 19.29 69.59 19.29L69.59 19.29L70.19 19.29Q71.06 19.22 71.47 19.13Q71.87 19.04 71.97 18.71Q72.08 18.38 72.08 17.61L72.08 17.61L72.08 17.23L72.11 16.77L72.11 16.28L72.15 15.37Q72.15 15.13 72.13 14.63Q72.11 14.14 71.97 13.44L71.97 13.44Q71.84 13.13 71.19 13.04Q70.54 12.95 70.02 12.95L70.02 12.95L69.88 12.95Q67.74 12.95 66.50 12.50Q65.25 12.04 64.66 11.17Q64.06 10.29 63.91 9.02Q63.75 7.74 63.75 6.06L63.75 6.06Q63.75 2.94 65.11 1.63Q66.48 0.32 69.88 0.32L69.88 0.32Q73.31 0.32 74.65 1.70Q76 3.08 76 6.23L76 6.23L72.08 6.23Q72.08 5.11 71.97 4.64Q71.87 4.17 71.40 4.08Q70.92 3.99 69.88 3.99L69.88 3.99Q68.83 3.99 68.35 4.10Q67.88 4.20 67.76 4.64Q67.64 5.08 67.64 6.06L67.64 6.06L67.64 6.62L67.60 7.42Q67.60 7.60 67.62 8.00Q67.64 8.40 67.81 8.89L67.81 8.89Q67.84 9.00 68.39 9.12Q68.93 9.24 69.88 9.24L69.88 9.24Q72.19 9.24 73.44 9.79Q74.70 10.33 75.25 11.29Q75.79 12.25 75.89 13.57Q76 14.88 76 16.45L76 16.45L76 17.23Q76 20.38 74.65 21.69Q73.31 23 69.88 23ZM81.88 23L77.93 23L77.93 0.35L81.88 0.35L81.88 23ZM87.83 23L83.91 23L83.91 0.28L94.97 0.28L94.97 3.96L87.83 3.96L87.83 9.24L92.87 9.24L92.87 12.95L87.83 12.95L87.83 23ZM104.46 23L100.54 23L100.54 13.62Q98.61 11.97 97.74 10.33Q96.86 8.68 96.63 6.88Q96.41 5.08 96.41 2.94L96.41 2.94L96.41 0.28L100.29 0.28L100.29 1.23L100.26 2.17L100.26 2.91L100.22 3.64Q100.22 5.36 100.64 7.04Q101.06 8.72 102.46 10.26L102.46 10.26Q103.97 8.68 104.39 6.99Q104.81 5.29 104.81 3.40L104.81 3.40L104.81 2.70L104.77 2.00L104.77 1.12L104.74 0.28L108.66 0.28L108.66 2.94Q108.66 5.08 108.39 6.88Q108.13 8.68 107.24 10.31Q106.35 11.94 104.46 13.62L104.46 13.62L104.46 23Z"/></g>
</svg>
